<svg xmlns="http://www.w3.org/2000/svg" viewBox="0 0 24 24" fill="#0969da">
  <rect x="2" y="8" width="4" height="3" rx="0.5"/>
  <rect x="7" y="8" width="4" height="3" rx="0.5"/>
  <rect x="12" y="8" width="4" height="3" rx="0.5"/>
  <rect x="7" y="4" width="4" height="3" rx="0.5"/>
  <rect x="12" y="4" width="4" height="3" rx="0.5"/>
  <path d="M21 11c-1-1-2.5-1-3.5-1L17 9c0-2-1.5-4-4-4H8C6 5 5 6.5 5 9v1c-1 0-2.5 0-3.5 1C.5 12 .5 13 .5 14v2c0 1.5.5 3 2.5 3h18c2 0 2.5-1.5 2.5-3v-2c0-1-.5-2-2.5-3z"/>
</svg>
